# xmcd
#
# Track frame offsets:
#	150
#	12008
#	29081
#	43194
#	58067
#	74154
#	88555
#	105665
#	117411
#	132538
#
# Disc length: 1977 seconds
#
# Revision: 0
# Processed by: cddbd v1.5.2PL0 Copyright (c) Steve Scherf et al.
# Submitted via: EasyCDDAExtractor 9.1.0.1
#
DISCID=9407b70a
DTITLE=Marvin Morrow - Jesus, Pure And Simple
DYEAR=2000
DGENRE=Gospel
TTITLE0=When This World Is Falling
TTITLE1=Jesus, Pure And Simple
TTITLE2=When We Lay The Old Cross Down
TTITLE3=Heaven Will Be My Home
TTITLE4=Without Jesus, Thats How We'd Be
TTITLE5=Knee Bent And Heaven Bound
TTITLE6=Go Rest High On That Mountain
TTITLE7=Do You Know My Jesus
TTITLE8=In That Land
TTITLE9=The Baptism Of Jesse Taylor
EXTD=
EXTT0=
EXTT1=
EXTT2=
EXTT3=
EXTT4=
EXTT5=
EXTT6=
EXTT7=
EXTT8=
EXTT9=
PLAYORDER=
